<svg width="24" height="24" viewBox="0 0 24 24" fill="none" xmlns="http://www.w3.org/2000/svg">
<path d="M10.7996 2.4C9.47586 2.4 8.39961 3.47625 8.39961 4.8V14.4C8.39961 15.7238 9.47586 16.8 10.7996 16.8H17.9996C19.3234 16.8 20.3996 15.7238 20.3996 14.4V6.8775C20.3996 6.225 20.1334 5.59875 19.6609 5.145L17.4971 3.0675C17.0509 2.64 16.4546 2.4 15.8359 2.4H10.7996ZM5.99961 7.2C4.67586 7.2 3.59961 8.27625 3.59961 9.6V19.2C3.59961 20.5238 4.67586 21.6 5.99961 21.6H13.1996C14.5234 21.6 15.5996 20.5238 15.5996 19.2V18.6H13.1996V19.2H5.99961V9.6H6.59961V7.2H5.99961Z" fill="white"/>
</svg>
