<svg width="48" height="48" viewBox="0 0 48 48" fill="none" xmlns="http://www.w3.org/2000/svg">
<path d="M32.38 4H15.62C8.34 4 4 8.34 4 15.62V32.36C4 39.66 8.34 44 15.62 44H32.36C39.64 44 43.98 39.66 43.98 32.38V15.62C44 8.34 39.66 4 32.38 4ZM24 31.76C19.72 31.76 16.24 28.28 16.24 24C16.24 19.72 19.72 16.24 24 16.24C28.28 16.24 31.76 19.72 31.76 24C31.76 28.28 28.28 31.76 24 31.76ZM35.84 13.76C35.74 14 35.6 14.22 35.42 14.42C35.22 14.6 35 14.74 34.76 14.84C34.52 14.94 34.26 15 34 15C33.46 15 32.96 14.8 32.58 14.42C32.4 14.22 32.26 14 32.16 13.76C32.06 13.52 32 13.26 32 13C32 12.74 32.06 12.48 32.16 12.24C32.26 11.98 32.4 11.78 32.58 11.58C33.04 11.12 33.74 10.9 34.38 11.04C34.52 11.06 34.64 11.1 34.76 11.16C34.88 11.2 35 11.26 35.12 11.34C35.22 11.4 35.32 11.5 35.42 11.58C35.6 11.78 35.74 11.98 35.84 12.24C35.94 12.48 36 12.74 36 13C36 13.26 35.94 13.52 35.84 13.76Z" fill="white"/>
</svg>
