<svg width="48" height="48" viewBox="0 0 48 48" fill="none" xmlns="http://www.w3.org/2000/svg">
<g clip-path="url(#clip0_2166_121)">
<path d="M47.316 19.0875C46.9973 17.55 46.5285 16.05 45.9098 14.5875C45.3098 13.1625 44.5598 11.8125 43.6973 10.5375C42.8348 9.2625 41.8598 8.1 40.791 7.0125C39.7035 5.925 38.5035 4.93125 37.266 4.10625C35.991 3.24375 34.6035 2.49375 33.216 1.89375C31.7723 1.275 30.2723 0.806251 28.716 0.487501C27.141 0.168751 25.5285 0 23.8973 0C22.266 0 20.6535 0.168751 19.0785 0.487501C17.541 0.806251 16.041 1.275 14.5973 1.89375C13.1723 2.49375 11.8223 3.24375 10.5473 4.10625C9.27227 4.96875 8.09101 5.94375 7.02226 7.0125C5.95351 8.08125 4.95977 9.3 4.11601 10.5375C3.25351 11.8125 2.50352 13.1625 1.90352 14.5875C1.28477 16.0312 0.816017 17.5312 0.497267 19.0875C0.178517 20.6625 0.00976562 22.275 0.00976562 23.9062C0.00976562 25.5375 0.178517 27.15 0.497267 28.725C0.816017 30.2625 1.28477 31.7625 1.90352 33.2063C2.50352 34.6313 3.25351 35.9812 4.11601 37.275C4.97852 38.55 5.95351 39.7125 7.02226 40.8C8.10977 41.8875 9.30977 42.8625 10.5473 43.7063C11.8223 44.5688 13.2098 45.3188 14.5973 45.9188C16.041 46.5375 17.541 47.0063 19.0785 47.325C20.6535 47.6438 22.266 47.8125 23.8973 47.8125C25.5285 47.8125 27.1223 47.6438 28.716 47.325C30.2535 47.0063 31.7535 46.5375 33.216 45.9188C34.641 45.3188 35.991 44.5688 37.266 43.7063C38.541 42.8438 39.7223 41.8688 40.791 40.8C41.8785 39.7125 42.8535 38.5125 43.6973 37.275C44.5598 36 45.3098 34.6313 45.9098 33.2063C46.5285 31.7625 46.9973 30.2625 47.316 28.725C47.6348 27.15 47.8035 25.5375 47.8035 23.9062C47.8035 22.275 47.6348 20.6625 47.316 19.0875ZM23.8973 3.4875C29.0723 3.4875 33.7785 5.41875 37.3785 8.5875C37.3223 8.6625 34.4348 13.0875 26.7098 15.975C23.2223 9.5625 19.3785 4.4625 19.0598 4.05C20.616 3.69375 22.2285 3.4875 23.8973 3.4875ZM18.966 4.0875C18.9848 4.06875 18.966 4.06875 18.966 4.0875ZM15.1785 5.4375C15.4598 5.79375 19.2285 10.9312 22.7723 17.2125C12.966 19.8 4.45351 19.7063 3.92851 19.6875C5.22226 13.3687 9.47852 8.11875 15.1785 5.4375ZM8.69102 37.5375C5.44727 33.9375 3.45976 29.1562 3.45976 23.9062C3.45976 23.6812 3.47852 23.475 3.47852 23.2688C3.83477 23.2688 13.9223 23.5125 24.441 20.3625C25.0223 21.5063 25.5848 22.6875 26.1098 23.8313C25.8473 23.9063 25.566 23.9812 25.3035 24.075C14.2785 27.6375 8.69102 37.5375 8.69102 37.5375ZM23.8973 44.325C19.1348 44.325 14.8035 42.6937 11.3348 39.9937C11.4098 39.8437 15.366 31.425 27.366 27.2437C27.4035 27.225 27.4598 27.2063 27.4973 27.2063C30.366 34.6688 31.5473 40.9125 31.8473 42.7125C29.4098 43.7437 26.7098 44.325 23.8973 44.325ZM35.2973 40.8375C35.091 39.6 34.0035 33.6187 31.3223 26.25C37.9223 25.2 43.641 27 44.0535 27.15C43.1535 32.8312 39.8723 37.7437 35.2973 40.8375ZM30.0848 23.025C29.9348 22.6687 29.7848 22.3313 29.6348 21.975C29.2035 20.9625 28.7535 19.9875 28.266 19.0125C36.3285 15.7312 39.6098 10.9875 39.6473 10.9312C42.4973 14.4187 44.241 18.8625 44.2973 23.7C44.016 23.6437 37.0973 22.1437 30.0848 23.025Z" fill="white"/>
</g>
<defs>
<clipPath id="clip0_2166_121">
<rect width="48" height="48" fill="white"/>
</clipPath>
</defs>
</svg>
